<svg width="32" height="32" viewBox="0 0 32 32" fill="none" xmlns="http://www.w3.org/2000/svg">
<path d="M28.8297 6.17032C28.4582 5.79879 28.0172 5.50407 27.5319 5.30299C27.0465 5.10192 26.5263 4.99842 26.0009 4.99842C25.4755 4.99842 24.9553 5.10192 24.47 5.30299C23.9846 5.50407 23.5436 5.79879 23.1722 6.17032C22.9204 6.42194 22.7035 6.70613 22.5272 7.01532L18.9997 6.05282C19.0106 5.25702 18.7838 4.47606 18.3484 3.80983C17.913 3.14361 17.2888 2.62241 16.5556 2.31291C15.8224 2.0034 15.0135 1.91966 14.2324 2.0724C13.4513 2.22514 12.7335 2.60741 12.1709 3.17032C11.5702 3.77248 11.1766 4.55017 11.0472 5.39085C10.9177 6.23153 11.0591 7.09159 11.4509 7.84657L7.20841 11.6653C6.43868 11.1566 5.51694 10.9291 4.5989 11.0213C3.68086 11.1136 2.8228 11.5199 2.16966 12.1716C1.43937 12.8963 1.01644 13.8746 0.988754 14.9031C0.961071 15.9316 1.33077 16.9312 2.02101 17.6942C2.71126 18.4572 3.66897 18.9249 4.69509 19.0001C5.72122 19.0752 6.73685 18.7521 7.53091 18.0978L16.2809 24.5178C16.0009 25.219 15.9251 25.9852 16.0622 26.7277C16.1993 27.4702 16.5438 28.1588 17.0558 28.7137C17.5678 29.2687 18.2265 29.6673 18.9556 29.8637C19.6847 30.06 20.4544 30.046 21.1759 29.8232C21.8974 29.6004 22.541 29.178 23.0325 28.6047C23.5239 28.0315 23.8431 27.3308 23.953 26.5838C24.063 25.8368 23.9593 25.0739 23.6538 24.3834C23.3484 23.6928 22.8538 23.1028 22.2272 22.6816L25.6509 12.9828C25.7659 12.9928 25.8809 12.9978 25.9959 12.9978C26.7869 12.9977 27.56 12.7631 28.2177 12.3236C28.8753 11.8842 29.3879 11.2596 29.6907 10.5289C29.9934 9.79815 30.0728 8.99407 29.9186 8.21827C29.7645 7.44248 29.3838 6.7298 28.8247 6.17032H28.8297ZM13.5797 4.58407C13.8595 4.30459 14.2158 4.11433 14.6037 4.03734C14.9916 3.96035 15.3936 4.00008 15.759 4.15152C16.1243 4.30296 16.4365 4.55931 16.6562 4.88816C16.8758 5.21701 16.9931 5.6036 16.9931 5.99907C16.9931 6.39454 16.8758 6.78113 16.6562 7.10998C16.4365 7.43883 16.1243 7.69518 15.759 7.84662C15.3936 7.99806 14.9916 8.03779 14.6037 7.9608C14.2158 7.88381 13.8595 7.69355 13.5797 7.41407C13.394 7.228 13.2469 7.00716 13.1467 6.76418C13.0465 6.52121 12.9951 6.26086 12.9956 5.99803C12.9961 5.7352 13.0483 5.47504 13.1494 5.23242C13.2505 4.9898 13.3984 4.76949 13.5847 4.58407H13.5797ZM3.57966 16.4153C3.39371 16.2296 3.24619 16.009 3.14554 15.7662C3.04489 15.5234 2.99309 15.2632 2.99309 15.0003C2.99309 14.7375 3.04489 14.4772 3.14554 14.2344C3.24619 13.9916 3.39371 13.7711 3.57966 13.5853C3.85945 13.3058 4.21582 13.1156 4.60373 13.0386C4.99163 12.9616 5.39365 13.0013 5.75897 13.1528C6.12429 13.3042 6.43652 13.5606 6.65618 13.8894C6.87585 14.2183 6.99309 14.6049 6.99309 15.0003C6.99309 15.3958 6.87585 15.7824 6.65618 16.1112C6.43652 16.4401 6.12429 16.6964 5.75897 16.8479C5.39365 16.9993 4.99163 17.039 4.60373 16.9621C4.21582 16.8851 3.85945 16.6948 3.57966 16.4153ZM21.4109 27.4153C21.0358 27.7904 20.527 28.0012 19.9965 28.0012C19.466 28.0012 18.9573 27.7904 18.5822 27.4153C18.207 27.0402 17.9963 26.5314 17.9963 26.0009C17.9963 25.4705 18.207 24.9617 18.5822 24.5866C18.7679 24.4008 18.9884 24.2535 19.2311 24.153C19.4738 24.0525 19.7339 24.0007 19.9965 24.0007C20.2592 24.0007 20.5193 24.0525 20.762 24.153C21.0047 24.2535 21.2252 24.4008 21.4109 24.5866C21.5966 24.7723 21.744 24.9928 21.8445 25.2355C21.945 25.4782 21.9968 25.7383 21.9968 26.0009C21.9968 26.2636 21.945 26.5237 21.8445 26.7664C21.744 27.0091 21.5966 27.2296 21.4109 27.4153ZM20.3422 22.0178C19.3052 21.9275 18.2738 22.245 17.4672 22.9028L8.71716 16.4828C8.92921 15.9479 9.02398 15.3737 8.99509 14.799C8.96619 14.2243 8.8143 13.6625 8.54966 13.1516L12.7934 9.33282C13.25 9.63542 13.7638 9.84102 14.3031 9.9369C14.8423 10.0328 15.3955 10.0169 15.9284 9.8902C16.4613 9.76351 16.9625 9.52874 17.4009 9.20043C17.8393 8.87211 18.2056 8.45726 18.4772 7.98157L21.9997 8.94532C21.9901 9.61026 22.1465 10.2671 22.4547 10.8564C22.7629 11.4457 23.2131 11.9488 23.7647 12.3203L20.3422 22.0178ZM27.4122 10.4128C27.2293 10.6104 27.0084 10.7691 26.7628 10.8793C26.5171 10.9895 26.2517 11.049 25.9825 11.0542C25.7133 11.0593 25.4458 11.0101 25.1961 10.9094C24.9464 10.8087 24.7196 10.6586 24.5293 10.4681C24.339 10.2776 24.1891 10.0507 24.0887 9.8009C23.9882 9.55111 23.9392 9.2836 23.9446 9.0144C23.95 8.74521 24.0097 8.47988 24.1201 8.23431C24.2305 7.98875 24.3894 7.768 24.5872 7.58532C24.9623 7.2102 25.471 6.99947 26.0015 6.99947C26.532 6.99947 27.0408 7.2102 27.4159 7.58532C27.791 7.96044 28.0018 8.4692 28.0018 8.9997C28.0018 9.53019 27.791 10.039 27.4159 10.4141L27.4122 10.4128Z" fill="white"/>
</svg>
