<svg width="40" height="40" viewBox="0 0 40 40" fill="none" xmlns="http://www.w3.org/2000/svg">
<path d="M0 12C0 5.37258 5.37258 0 12 0H28C34.6274 0 40 5.37258 40 12V28C40 34.6274 34.6274 40 28 40H12C5.37258 40 0 34.6274 0 28V12Z" fill="#1677FF"/>
<path fill-rule="evenodd" clip-rule="evenodd" d="M25.1048 4.56973C25.5466 5.27057 26.8732 7.37515 27.4392 9.90023C28.0761 12.7396 28.0643 14.4843 27.7869 16.4745C27.4294 19.0786 26.4723 21.5602 24.9935 23.717C24.3179 22.7569 23.751 21.7222 23.3038 20.6327C22.7428 19.1974 22.3539 17.6986 22.1455 16.1688C21.8721 13.8325 22.0652 11.4641 22.7133 9.20557C23.2439 7.49515 24.0083 5.86905 24.984 4.375C25.0084 4.41684 25.0497 4.48238 25.1048 4.56973ZM26.9415 17.6287C27.1359 16.6712 27.2408 15.6971 27.2548 14.7195C27.2748 13.0845 27.0721 11.4545 26.6522 9.87609C26.2512 8.48528 25.6869 7.14863 24.9717 5.895C24.2741 7.17494 23.7186 8.52981 23.3155 9.93463C22.9971 11.1365 22.8028 12.369 22.7358 13.6119C22.6937 14.9689 22.7829 16.3269 23.002 17.6662C22.9873 16.2621 23.1117 14.8602 23.3732 13.4815C23.7091 11.9313 24.2466 10.4336 24.9717 9.02796C25.5737 10.032 26.3272 12.1953 26.5932 13.4932C26.8656 14.8535 26.9825 16.2412 26.9415 17.6287ZM24.1374 19.5035C24.1441 20.7241 24.4342 21.9258 24.984 23.0109C25.5623 21.882 25.8489 20.6222 25.8169 19.3497C25.7845 18.1943 25.5034 17.0602 24.9935 16.0272C24.4313 17.0967 24.1372 18.2907 24.1374 19.5035Z" fill="white"/>
<path d="M21.0718 24.3163V27.6758L21.0748 27.6723C21.0779 27.6686 21.081 27.6649 21.0852 27.6605C21.6412 27.0992 22.3928 26.7842 23.1762 26.7842C23.9596 26.7842 24.7112 27.0992 25.2672 27.6605C25.5417 27.9381 25.7595 28.2682 25.9081 28.6317C26.0568 28.9953 26.1333 29.3851 26.1333 29.7789C26.1333 30.1726 26.0568 30.5624 25.9081 30.926C25.7595 31.2895 25.5417 31.6196 25.2672 31.8973C25.2626 31.9028 25.2573 31.9077 25.2516 31.9119L25.2512 31.9132C25.2489 31.916 25.246 31.9188 25.2429 31.9217C25.2402 31.9243 25.2373 31.927 25.2347 31.93C24.5497 32.6296 23.7054 33.1463 22.7768 33.4343C21.8481 33.7223 20.864 33.7727 19.9116 33.581C18.9593 33.3893 18.0682 32.9614 17.3176 32.3353C16.5669 31.7092 15.9798 30.9043 15.6085 29.992C15.2372 29.0798 15.0932 28.0884 15.1891 27.1059C15.2851 26.1234 15.6181 25.1802 16.1586 24.3601C16.6991 23.5399 17.4304 22.8682 18.2875 22.4045C19.1446 21.9408 20.101 21.6995 21.0718 21.7021V13.6902C19.3356 13.6953 17.6278 14.1391 16.102 14.9818C14.5762 15.8245 13.2803 17.0396 12.3307 18.5178C11.3812 19.9961 10.8077 21.6912 10.662 23.4507C10.5162 25.2102 10.8028 26.979 11.4958 28.598C12.1888 30.217 13.2666 31.6354 14.6323 32.7258C15.9979 33.8162 17.6087 34.5443 19.3196 34.8447C21.0305 35.1451 22.7881 35.0083 24.4342 34.4467C26.0803 33.8851 27.5633 32.9163 28.75 31.6273V24.3163H21.0718Z" fill="white"/>
</svg>
