<svg width="32" height="32" viewBox="0 0 32 32" fill="none" xmlns="http://www.w3.org/2000/svg">
<path fill-rule="evenodd" clip-rule="evenodd" d="M8 0C3.58172 0 0 3.58172 0 8V24C0 28.4183 3.58172 32 8 32H24C28.4183 32 32 28.4183 32 24V8C32 3.58172 28.4183 0 24 0H8ZM21.5067 8.8C18.3333 8.8 15.7067 6.2 15.7067 3H28.5467C28.8437 3 29.1286 3.118 29.3386 3.32804C29.5487 3.53808 29.6667 3.82296 29.6667 4.12V16.8667C26.4667 16.8533 23.88 14.2667 23.88 11.0667V8.8H21.5067ZM11.0626 13.484C9.97893 12.4003 9.36701 10.9326 9.36 9.4H22.2267C22.5191 9.40346 22.7986 9.52117 23.0054 9.72796C23.2122 9.93476 23.3299 10.2142 23.3333 10.5067V23.2667C21.8008 23.2597 20.333 22.6477 19.2493 21.564C18.1656 20.4803 17.5537 19.0126 17.5467 17.48V15.1867H15.1467C13.6141 15.1797 12.1463 14.5677 11.0626 13.484ZM8.8 21.5867C5.6 21.5867 3 19 3 15.8L15.84 15.7867C16.137 15.7867 16.4219 15.9047 16.632 16.1147C16.842 16.3247 16.96 16.6096 16.96 16.9067V29.6667C13.7733 29.6667 11.1867 27.0667 11.1733 23.88V21.5867H8.8Z" fill="#D9D9D9"/>
</svg>
