<svg width="32" height="32" viewBox="0 0 32 32" fill="none" xmlns="http://www.w3.org/2000/svg">
<path d="M30.5999 18.8009C30.4948 18.8797 30.3753 18.937 30.2481 18.9696C30.1209 19.0022 29.9885 19.0094 29.8585 18.9908C29.7285 18.9723 29.6034 18.9283 29.4904 18.8613C29.3774 18.7944 29.2787 18.7059 29.1999 18.6009C28.5972 17.7907 27.8126 17.1334 26.9094 16.6818C26.0063 16.2302 25.0097 15.997 23.9999 16.0009C23.8032 16.0009 23.611 15.9429 23.4471 15.8341C23.2833 15.7254 23.1551 15.5708 23.0786 15.3896C23.0267 15.2666 23 15.1344 23 15.0009C23 14.8673 23.0267 14.7352 23.0786 14.6121C23.1551 14.4309 23.2833 14.2763 23.4471 14.1676C23.611 14.0589 23.8032 14.0009 23.9999 14.0009C24.561 14.0008 25.1108 13.8434 25.5869 13.5466C26.063 13.2497 26.4464 12.8252 26.6934 12.3214C26.9403 11.8176 27.0411 11.2546 26.9841 10.6965C26.9272 10.1383 26.7149 9.60722 26.3713 9.16365C26.0276 8.72009 25.5665 8.38178 25.0403 8.18714C24.514 7.99251 23.9437 7.94937 23.3942 8.0626C22.8446 8.17584 22.3379 8.44092 21.9314 8.82774C21.525 9.21455 21.2352 9.7076 21.0949 10.2509C21.0621 10.3781 21.0045 10.4976 20.9255 10.6026C20.8465 10.7075 20.7475 10.7959 20.6344 10.8627C20.5212 10.9294 20.396 10.9732 20.2659 10.9916C20.1358 11.0099 20.0034 11.0025 19.8761 10.9696C19.7489 10.9368 19.6294 10.8792 19.5244 10.8002C19.4195 10.7212 19.3311 10.6223 19.2644 10.5091C19.1976 10.3959 19.1538 10.2707 19.1355 10.1406C19.1171 10.0105 19.1246 9.87809 19.1574 9.75087C19.3521 8.99752 19.7199 8.3 20.2316 7.71381C20.7433 7.12763 21.3848 6.66896 22.1049 6.37431C22.8251 6.07966 23.6041 5.95715 24.3799 6.01654C25.1558 6.07592 25.9071 6.31556 26.574 6.71639C27.2409 7.11721 27.8051 7.66816 28.2216 8.3254C28.6381 8.98263 28.8955 9.72801 28.9733 10.5022C29.0511 11.2764 28.9471 12.0581 28.6696 12.7851C28.3921 13.512 27.9488 14.1642 27.3749 14.6896C28.7347 15.2784 29.9167 16.2126 30.8036 17.3996C30.8824 17.5049 30.9397 17.6248 30.9721 17.7523C31.0045 17.8797 31.0114 18.0124 30.9925 18.1425C30.9736 18.2727 30.9291 18.3978 30.8618 18.5108C30.7944 18.6238 30.7054 18.7223 30.5999 18.8009ZM23.8649 26.5009C23.9372 26.6147 23.9858 26.742 24.0077 26.875C24.0296 27.0081 24.0243 27.1443 23.9923 27.2753C23.9602 27.4063 23.9019 27.5294 23.821 27.6373C23.7401 27.7452 23.6382 27.8356 23.5214 27.9031C23.4047 27.9706 23.2754 28.0138 23.1416 28.0301C23.0077 28.0463 22.8719 28.0353 22.7424 27.9977C22.6128 27.9602 22.4922 27.8968 22.3878 27.8114C22.2834 27.726 22.1974 27.6204 22.1349 27.5009C21.5049 26.4342 20.6078 25.5502 19.5319 24.9361C18.4561 24.322 17.2387 23.999 15.9999 23.999C14.7611 23.999 13.5437 24.322 12.4679 24.9361C11.392 25.5502 10.4948 26.4342 9.86489 27.5009C9.80238 27.6204 9.71633 27.726 9.61194 27.8114C9.50755 27.8968 9.38696 27.9602 9.25743 27.9977C9.1279 28.0353 8.99211 28.0463 8.85822 28.0301C8.72434 28.0138 8.59513 27.9706 8.47836 27.9031C8.3616 27.8356 8.25969 27.7452 8.17878 27.6373C8.09786 27.5294 8.03961 27.4063 8.00752 27.2753C7.97543 27.1443 7.97018 27.0081 7.99206 26.875C8.01395 26.742 8.06254 26.6147 8.13489 26.5009C9.10439 24.8351 10.5826 23.5242 12.3524 22.7609C11.3566 21.9984 10.6247 20.9431 10.2596 19.7432C9.89461 18.5433 9.91477 17.2591 10.3173 16.0713C10.7198 14.8834 11.4844 13.8515 12.5037 13.1207C13.523 12.3899 14.7457 11.9969 15.9999 11.9969C17.2541 11.9969 18.4768 12.3899 19.4961 13.1207C20.5153 13.8515 21.28 14.8834 21.6825 16.0713C22.085 17.2591 22.1052 18.5433 21.7401 19.7432C21.3751 20.9431 20.6432 21.9984 19.6474 22.7609C21.4171 23.5242 22.8954 24.8351 23.8649 26.5009ZM15.9999 22.0009C16.791 22.0009 17.5644 21.7663 18.2222 21.3268C18.88 20.8872 19.3927 20.2625 19.6954 19.5316C19.9982 18.8007 20.0774 17.9964 19.923 17.2205C19.7687 16.4446 19.3877 15.7319 18.8283 15.1724C18.2689 14.613 17.5562 14.2321 16.7803 14.0777C16.0043 13.9234 15.2001 14.0026 14.4692 14.3054C13.7383 14.6081 13.1135 15.1208 12.674 15.7786C12.2345 16.4364 11.9999 17.2097 11.9999 18.0009C11.9999 19.0617 12.4213 20.0792 13.1715 20.8293C13.9216 21.5794 14.939 22.0009 15.9999 22.0009ZM8.99989 15.0009C8.99989 14.7357 8.89453 14.4813 8.707 14.2938C8.51946 14.1062 8.26511 14.0009 7.99989 14.0009C7.4388 14.0008 6.88897 13.8434 6.41285 13.5466C5.93673 13.2497 5.55341 12.8252 5.30643 12.3214C5.05945 11.8176 4.9587 11.2546 5.01564 10.6965C5.07258 10.1383 5.28491 9.60722 5.62853 9.16365C5.97214 8.72009 6.43326 8.38178 6.95952 8.18714C7.48577 7.99251 8.05605 7.94937 8.6056 8.0626C9.15514 8.17584 9.66192 8.44092 10.0684 8.82774C10.4748 9.21455 10.7646 9.7076 10.9049 10.2509C10.9712 10.5078 11.1368 10.7279 11.3654 10.8627C11.594 10.9975 11.8667 11.0359 12.1236 10.9696C12.3806 10.9033 12.6006 10.7377 12.7354 10.5091C12.8702 10.2805 12.9087 10.0078 12.8424 9.75087C12.6477 8.99752 12.2799 8.3 11.7682 7.71381C11.2564 7.12763 10.615 6.66896 9.89483 6.37431C9.17467 6.07966 8.39568 5.95715 7.61984 6.01654C6.844 6.07592 6.09273 6.31556 5.4258 6.71639C4.75887 7.11721 4.1947 7.66816 3.77817 8.3254C3.36164 8.98263 3.10425 9.72801 3.02648 10.5022C2.94871 11.2764 3.05271 12.0581 3.3302 12.7851C3.60769 13.512 4.05101 14.1642 4.62489 14.6896C3.26649 15.2789 2.08578 16.2132 1.19989 17.3996C1.0406 17.6118 0.972109 17.8786 1.0095 18.1412C1.04689 18.4039 1.18709 18.641 1.39927 18.8003C1.61144 18.9595 1.8782 19.028 2.14087 18.9906C2.40354 18.9533 2.6406 18.813 2.79989 18.6009C3.40262 17.7907 4.18716 17.1334 5.09034 16.6818C5.99352 16.2302 6.99011 15.997 7.99989 16.0009C8.26511 16.0009 8.51946 15.8955 8.707 15.708C8.89453 15.5204 8.99989 15.2661 8.99989 15.0009Z" fill="#1F1F1F"/>
</svg>
