<svg width="32" height="32" viewBox="0 0 32 32" fill="none" xmlns="http://www.w3.org/2000/svg">
<path d="M0 16V24C0 28.4183 3.58172 32 8 32H16H24C28.4183 32 32 28.4183 32 24V16V8C32 3.58172 28.4183 0 24 0H16H8C3.58172 0 0 3.58172 0 8V16ZM10.8267 5.99467C11.1787 6.176 11.9253 6.83733 12.992 7.904C14.9867 9.89867 15.2 10.2613 15.2 11.6267C15.2 12.3947 15.1573 12.6187 14.9013 13.1307C13.9307 15.1253 11.36 15.7973 9.6 14.528C8.97067 14.0693 6.45333 11.4667 6.16533 10.976C5.03467 9.04533 6.016 6.50667 8.16 5.792C8.85333 5.568 10.1867 5.664 10.8267 5.99467ZM24.2347 5.99467C24.8853 6.29333 25.6107 6.976 25.92 7.57333C26.2187 8.17067 26.368 9.152 26.24 9.792C26.0587 10.7947 25.7067 11.2747 23.9253 13.024C22.4533 14.4853 22.1653 14.72 21.6 14.9227C21.0773 15.1253 20.8 15.1573 20.1493 15.1253C18.7733 15.0507 17.76 14.3787 17.152 13.152C16.864 12.5653 16.8107 12.3307 16.8107 11.6907C16.8 10.2933 16.9813 9.99467 18.8693 8.07467C19.7867 7.14667 20.6933 6.28267 20.8853 6.16533C21.8347 5.57867 23.1787 5.51467 24.2347 5.99467ZM13.2053 17.056C13.9093 17.4187 14.5707 18.0907 14.9013 18.7627C15.1573 19.2747 15.2 19.4987 15.2 20.2667C15.2 21.6427 14.944 22.08 13.024 24.0107C11.2107 25.8347 10.7307 26.1333 9.536 26.2187C8.52267 26.2827 7.73333 26.048 7.01867 25.4613C5.664 24.3627 5.30133 22.4213 6.15467 20.9493C6.29333 20.704 7.11467 19.7973 7.97867 18.9333C9.97333 16.9387 10.3573 16.7147 11.7867 16.7787C12.5227 16.8 12.8533 16.8747 13.2053 17.056ZM21.8133 17.0453C22.3147 17.2907 22.7947 17.696 24.032 18.944C25.728 20.64 26.0373 21.056 26.24 21.952C26.6347 23.6587 25.504 25.6 23.8187 26.0907C22.9653 26.336 21.8773 26.2507 21.1413 25.8773C20.2667 25.44 17.5147 22.6453 17.12 21.8133C16.5227 20.544 16.6827 19.1253 17.5573 18.0587C18.304 17.1413 19.136 16.7573 20.3733 16.7467C21.0347 16.7467 21.28 16.8 21.8133 17.0453Z" fill="#D9D9D9"/>
</svg>
