<svg width="32" height="32" viewBox="0 0 32 32" fill="none" xmlns="http://www.w3.org/2000/svg">
<g clip-path="url(#clip0_1299_13441)">
<path fill-rule="evenodd" clip-rule="evenodd" d="M2.24533 2.24533C0 4.49067 0 8.1056 0 15.3333V16.6667C0 23.8933 0 27.5093 2.24533 29.7547C4.49067 32 8.1056 32 15.3333 32H16.6667C23.8933 32 27.5093 32 29.7547 29.7547C32 27.5093 32 23.8944 32 16.6667V15.3333C32 8.10667 32 4.49067 29.7547 2.24533C27.5093 0 23.8944 0 16.6667 0H15.3333C8.10667 0 4.49067 0 2.24533 2.24533ZM7.24253 15.8311C11.9069 13.7989 15.0171 12.4592 16.5734 11.8119C21.0167 9.96376 21.94 9.64272 22.5418 9.63211C22.6742 9.62978 22.9701 9.66259 23.1618 9.81814C23.3237 9.94948 23.3682 10.1269 23.3895 10.2514C23.4109 10.376 23.4374 10.6596 23.4163 10.8813C23.1755 13.4113 22.1336 19.5509 21.6036 22.3845C21.3793 23.5835 20.9377 23.9855 20.5101 24.0248C19.7743 24.0926 19.1788 23.668 18.5159 23.1954C18.3416 23.0712 18.1628 22.9437 17.9755 22.8209C17.2404 22.339 16.6722 21.9521 16.1026 21.5642C15.581 21.209 15.0582 20.8529 14.4048 20.4224C13.0452 19.5264 13.6144 18.9778 14.3733 18.2461L14.3734 18.2461C14.4962 18.1276 14.624 18.0044 14.7494 17.8742C14.8054 17.816 15.0793 17.5614 15.4653 17.2025L15.4655 17.2024C16.7042 16.0508 19.0977 13.8255 19.1581 13.568C19.1681 13.5258 19.1773 13.3683 19.0837 13.2851C18.9901 13.202 18.8521 13.2304 18.7524 13.253C18.6112 13.2851 16.3616 14.772 12.0035 17.7138C11.365 18.1523 10.7866 18.3659 10.2684 18.3547C9.69711 18.3424 8.59819 18.0317 7.78126 17.7661C7.66145 17.7272 7.54457 17.6905 7.43177 17.655L7.4313 17.6548C6.60096 17.3937 5.99119 17.202 6.05223 16.7151C6.08835 16.427 6.48512 16.1323 7.24253 15.8311Z" fill="#D9D9D9"/>
</g>
<defs>
<clipPath id="clip0_1299_13441">
<rect width="32" height="32" fill="white"/>
</clipPath>
</defs>
</svg>
